<?xml version="1.0" encoding="utf-8"?>
<!-- Generator: Adobe Illustrator 24.3.0, SVG Export Plug-In . SVG Version: 6.00 Build 0)  -->
<svg version="1.1" id="Layer_1" xmlns="http://www.w3.org/2000/svg" xmlns:xlink="http://www.w3.org/1999/xlink" x="0px" y="0px"
	 width="820px" height="206.414px" viewBox="0 0 820 206.414" style="enable-background:new 0 0 820 206.414;" xml:space="preserve"
	>
<style type="text/css">
	.st0{fill:url(#SVGID_1_);}
	.st1{fill:url(#SVGID_2_);}
	.st2{fill:url(#SVGID_3_);}
	.st3{fill:#1CD0BB;}
	.st4{fill:url(#SVGID_4_);}
	.st5{fill:#FFFFFF;}
	.st6{fill:#333333;}
	.st7{fill:url(#SVGID_5_);}
	.st8{fill:url(#SVGID_6_);}
</style>
<linearGradient id="SVGID_1_" gradientUnits="userSpaceOnUse" x1="393.8481" y1="85.5786" x2="656.4248" y2="85.5786">
	<stop  offset="0" style="stop-color:#17C9C0"/>
	<stop  offset="0.1651" style="stop-color:#00A9D7"/>
	<stop  offset="0.5644" style="stop-color:#1CD0BB"/>
	<stop  offset="1" style="stop-color:#0FBEC8"/>
</linearGradient>
<path class="st0" d="M588.084,155.761H462.188c-37.683,0-68.34-30.658-68.34-68.341v-3.683c0-37.683,30.658-68.341,68.34-68.341
	h125.896c37.684,0,68.341,30.658,68.341,68.341v3.683C656.425,125.103,625.768,155.761,588.084,155.761z M462.188,18.396
	c-36.028,0-65.34,29.312-65.34,65.341v3.683c0,36.029,29.312,65.341,65.34,65.341h125.896c36.029,0,65.341-29.312,65.341-65.341
	v-3.683c0-36.029-29.312-65.341-65.341-65.341H462.188z"/>
<linearGradient id="SVGID_2_" gradientUnits="userSpaceOnUse" x1="-39.508" y1="626.2202" x2="-80.077" y2="626.2202" gradientTransform="matrix(-1 0 0 -1 460.9356 643.1205)">
	<stop  offset="0.2777" style="stop-color:#FFFFFF"/>
	<stop  offset="0.3466" style="stop-color:#FAFEFE;stop-opacity:0.886"/>
	<stop  offset="0.4263" style="stop-color:#ECFBF9;stop-opacity:0.7539"/>
	<stop  offset="0.5116" style="stop-color:#D5F6F2;stop-opacity:0.6128"/>
	<stop  offset="0.6007" style="stop-color:#B4F0E9;stop-opacity:0.4654"/>
	<stop  offset="0.6927" style="stop-color:#8AE7DC;stop-opacity:0.3131"/>
	<stop  offset="0.7872" style="stop-color:#57DCCD;stop-opacity:0.1566"/>
	<stop  offset="0.8819" style="stop-color:#1CD0BB;stop-opacity:0"/>
</linearGradient>
<polygon class="st1" points="500.444,15.395 541.013,15.395 541.013,18.405 500.444,18.405 "/>
<linearGradient id="SVGID_3_" gradientUnits="userSpaceOnUse" x1="516.6394" y1="-80.2349" x2="471.9349" y2="-80.2349" gradientTransform="matrix(1 0 0 1 23.9444 234.4884)">
	<stop  offset="0.2777" style="stop-color:#FFFFFF"/>
	<stop  offset="0.3415" style="stop-color:#FAFDFE;stop-opacity:0.8933"/>
	<stop  offset="0.4156" style="stop-color:#ECF9FC;stop-opacity:0.7696"/>
	<stop  offset="0.4947" style="stop-color:#D5F1F8;stop-opacity:0.6374"/>
	<stop  offset="0.5773" style="stop-color:#B4E6F3;stop-opacity:0.4993"/>
	<stop  offset="0.6628" style="stop-color:#8AD8ED;stop-opacity:0.3565"/>
	<stop  offset="0.7505" style="stop-color:#57C6E5;stop-opacity:0.2098"/>
	<stop  offset="0.8386" style="stop-color:#1CB2DB;stop-opacity:0.0627"/>
	<stop  offset="0.8761" style="stop-color:#00A9D7;stop-opacity:0"/>
</linearGradient>
<rect x="495.879" y="152.73" class="st2" width="44.704" height="3.048"/>
<polygon class="st3" points="511.957,16.851 498.662,9.175 498.662,24.528 "/>
<polygon class="st3" points="527.152,153.856 540.447,161.532 540.447,146.18 "/>
<linearGradient id="SVGID_4_" gradientUnits="userSpaceOnUse" x1="123.4922" y1="85.5786" x2="386.0688" y2="85.5786">
	<stop  offset="0" style="stop-color:#17C9C0"/>
	<stop  offset="0.1651" style="stop-color:#00A9D7"/>
	<stop  offset="0.5644" style="stop-color:#1CD0BB"/>
	<stop  offset="1" style="stop-color:#0FBEC8"/>
</linearGradient>
<path class="st4" d="M317.728,155.761H191.833c-37.683,0-68.34-30.658-68.34-68.341v-3.683c0-37.683,30.657-68.341,68.34-68.341
	h125.896c37.683,0,68.341,30.658,68.341,68.341v3.683C386.069,125.103,355.411,155.761,317.728,155.761z M191.833,18.396
	c-36.029,0-65.34,29.312-65.34,65.341v3.683c0,36.029,29.312,65.341,65.34,65.341h125.896c36.029,0,65.341-29.312,65.341-65.341
	v-3.683c0-36.029-29.312-65.341-65.341-65.341H191.833z"/>
<rect x="364.562" y="55.796" class="st5" width="294.63" height="61.829"/>
<rect x="114.938" y="55.656" class="st5" width="282.437" height="61.954"/>
<g>
	<path class="st6" d="M722.991,87.007v-0.024c0-2.363,1.822-4.341,4.401-4.341c2.578,0,4.377,1.955,4.377,4.317v0.024
		c0,2.363-1.822,4.342-4.401,4.342C724.79,91.325,722.991,89.37,722.991,87.007z M730.223,87.007v-0.024
		c0-1.631-1.188-2.986-2.854-2.986s-2.83,1.332-2.83,2.962v0.024c0,1.631,1.188,2.975,2.854,2.975S730.223,88.639,730.223,87.007z"
		/>
	<path class="st6" d="M734.307,82.786h3.311c1.967,0,3.19,1.116,3.19,2.807v0.024c0,1.883-1.512,2.866-3.358,2.866h-1.667v2.699
		h-1.476V82.786z M737.497,87.151c1.115,0,1.812-0.624,1.812-1.499v-0.024c0-0.984-0.708-1.5-1.812-1.5h-1.715v3.022H737.497z"/>
	<path class="st6" d="M743.066,82.786h6.225v1.319h-4.749v2.183h4.21v1.319h-4.21v2.255h4.81v1.319h-6.285V82.786z"/>
	<path class="st6" d="M751.851,82.786h3.742c1.056,0,1.883,0.312,2.423,0.84c0.443,0.456,0.695,1.079,0.695,1.811v0.024
		c0,1.379-0.827,2.207-1.991,2.542l2.268,3.178h-1.751l-2.063-2.926h-1.847v2.926h-1.476V82.786z M755.485,86.947
		c1.055,0,1.727-0.551,1.727-1.403V85.52c0-0.899-0.647-1.391-1.739-1.391h-2.146v2.818H755.485z"/>
	<path class="st6" d="M764.244,82.726h1.367l3.694,8.456h-1.56l-0.852-2.027h-3.97l-0.863,2.027h-1.512L764.244,82.726z
		 M766.355,87.847l-1.451-3.358l-1.439,3.358H766.355z"/>
	<path class="st6" d="M772.477,84.153h-2.663v-1.367h6.812v1.367h-2.662v7.028h-1.487V84.153z"/>
	<path class="st6" d="M778.934,82.786h6.225v1.319h-4.749v2.183h4.21v1.319h-4.21v2.255h4.81v1.319h-6.285V82.786z"/>
</g>
<g>
	<path class="st6" d="M607.655,82.786h3.131c2.639,0,4.461,1.811,4.461,4.174v0.024c0,2.363-1.822,4.198-4.461,4.198h-3.131V82.786z
		 M609.131,84.129v5.709h1.655c1.763,0,2.914-1.188,2.914-2.831v-0.024c0-1.643-1.151-2.854-2.914-2.854H609.131z"/>
	<path class="st6" d="M617.783,82.786h6.225v1.319h-4.749v2.183h4.21v1.319h-4.21v2.255h4.81v1.319h-6.285V82.786z"/>
	<path class="st6" d="M626.567,82.786h3.311c1.967,0,3.19,1.116,3.19,2.807v0.024c0,1.883-1.512,2.866-3.358,2.866h-1.667v2.699
		h-1.476V82.786z M629.758,87.151c1.115,0,1.812-0.624,1.812-1.499v-0.024c0-0.984-0.708-1.5-1.812-1.5h-1.715v3.022H629.758z"/>
	<path class="st6" d="M635.327,82.786h1.476v7.052h4.413v1.343h-5.889V82.786z"/>
	<path class="st6" d="M642.647,87.007v-0.024c0-2.363,1.822-4.341,4.401-4.341c2.578,0,4.377,1.955,4.377,4.317v0.024
		c0,2.363-1.822,4.342-4.401,4.342C644.446,91.325,642.647,89.37,642.647,87.007z M649.879,87.007v-0.024
		c0-1.631-1.188-2.986-2.854-2.986s-2.83,1.332-2.83,2.962v0.024c0,1.631,1.188,2.975,2.854,2.975S649.879,88.639,649.879,87.007z"
		/>
	<path class="st6" d="M655.713,87.871l-3.334-5.085h1.751l2.339,3.706l2.375-3.706h1.69l-3.334,5.049v3.346h-1.487V87.871z"/>
</g>
<g>
	<path class="st6" d="M483.15,82.786h3.742c1.056,0,1.883,0.312,2.423,0.84c0.443,0.456,0.695,1.079,0.695,1.811v0.024
		c0,1.379-0.827,2.207-1.99,2.542l2.267,3.178h-1.751l-2.063-2.926h-1.847v2.926h-1.476V82.786z M486.785,86.947
		c1.055,0,1.727-0.551,1.727-1.403V85.52c0-0.899-0.647-1.391-1.739-1.391h-2.146v2.818H486.785z"/>
	<path class="st6" d="M492.57,82.786h6.225v1.319h-4.749v2.183h4.21v1.319h-4.21v2.255h4.81v1.319h-6.285V82.786z"/>
	<path class="st6" d="M501.354,82.786h1.476v7.052h4.413v1.343h-5.889V82.786z"/>
	<path class="st6" d="M509.526,82.786h6.225v1.319h-4.749v2.183h4.21v1.319h-4.21v2.255h4.81v1.319h-6.285V82.786z"/>
	<path class="st6" d="M521.284,82.726h1.367l3.694,8.456h-1.56l-0.852-2.027h-3.97l-0.863,2.027h-1.512L521.284,82.726z
		 M523.396,87.847l-1.451-3.358l-1.439,3.358H523.396z"/>
	<path class="st6" d="M527.826,89.958l0.888-1.056c0.804,0.696,1.619,1.091,2.65,1.091c0.911,0,1.487-0.432,1.487-1.055v-0.024
		c0-0.6-0.336-0.924-1.896-1.283c-1.786-0.432-2.794-0.96-2.794-2.507v-0.024c0-1.439,1.199-2.435,2.866-2.435
		c1.224,0,2.195,0.372,3.047,1.055l-0.792,1.115c-0.756-0.563-1.511-0.863-2.278-0.863c-0.864,0-1.367,0.444-1.367,0.996v0.024
		c0,0.647,0.384,0.936,2.003,1.319c1.774,0.432,2.687,1.067,2.687,2.458v0.024c0,1.571-1.235,2.507-2.999,2.507
		C530.045,91.301,528.834,90.857,527.826,89.958z"/>
	<path class="st6" d="M536.813,82.786h6.225v1.319h-4.749v2.183h4.21v1.319h-4.21v2.255h4.81v1.319h-6.285V82.786z"/>
</g>
<g>
	<path class="st6" d="M374.011,84.153h-2.663v-1.367h6.812v1.367h-2.662v7.028h-1.487V84.153z"/>
	<path class="st6" d="M380.468,82.786h6.225v1.319h-4.749v2.183h4.21v1.319h-4.21v2.255h4.81v1.319h-6.285V82.786z"/>
	<path class="st6" d="M388.689,89.958l0.888-1.056c0.804,0.696,1.619,1.091,2.65,1.091c0.911,0,1.487-0.432,1.487-1.055v-0.024
		c0-0.6-0.336-0.924-1.895-1.283c-1.787-0.432-2.795-0.96-2.795-2.507v-0.024c0-1.439,1.199-2.435,2.866-2.435
		c1.224,0,2.195,0.372,3.047,1.055l-0.792,1.115c-0.756-0.563-1.511-0.863-2.278-0.863c-0.864,0-1.367,0.444-1.367,0.996v0.024
		c0,0.647,0.384,0.936,2.003,1.319c1.774,0.432,2.687,1.067,2.687,2.458v0.024c0,1.571-1.235,2.507-2.999,2.507
		C390.908,91.301,389.697,90.857,388.689,89.958z"/>
	<path class="st6" d="M399.56,84.153h-2.663v-1.367h6.812v1.367h-2.662v7.028h-1.487V84.153z"/>
</g>
<g>
	<path class="st6" d="M261.152,82.786h3.767c0.959,0,1.715,0.264,2.194,0.744c0.372,0.372,0.563,0.828,0.563,1.391v0.024
		c0,1.007-0.575,1.547-1.199,1.871c0.983,0.336,1.667,0.899,1.667,2.039v0.024c0,1.499-1.235,2.303-3.106,2.303h-3.886V82.786z
		 M266.202,85.161c0-0.66-0.528-1.067-1.476-1.067h-2.123v2.23h2.016c0.947,0,1.583-0.372,1.583-1.139V85.161z M264.942,87.571
		h-2.339v2.303h2.447c1.007,0,1.619-0.396,1.619-1.151v-0.024C266.669,87.991,266.105,87.571,264.942,87.571z"/>
	<path class="st6" d="M270.428,87.619v-4.833h1.476v4.773c0,1.559,0.804,2.387,2.123,2.387c1.307,0,2.11-0.779,2.11-2.327v-4.833
		h1.476v4.762c0,2.506-1.415,3.766-3.61,3.766C271.82,91.313,270.428,90.054,270.428,87.619z"/>
	<path class="st6" d="M280.472,82.786h1.476v8.396h-1.476V82.786z"/>
	<path class="st6" d="M284.936,82.786h1.476v7.052h4.413v1.343h-5.889V82.786z"/>
	<path class="st6" d="M293.107,82.786h3.131c2.639,0,4.461,1.811,4.461,4.174v0.024c0,2.363-1.822,4.198-4.461,4.198h-3.131V82.786z
		 M294.583,84.129v5.709h1.655c1.763,0,2.914-1.188,2.914-2.831v-0.024c0-1.643-1.151-2.854-2.914-2.854H294.583z"/>
</g>
<g>
	<path class="st6" d="M144.122,87.007v-0.024c0-2.387,1.786-4.341,4.329-4.341c1.547,0,2.482,0.54,3.286,1.307l-0.947,1.091
		c-0.672-0.624-1.392-1.043-2.351-1.043c-1.596,0-2.771,1.319-2.771,2.962v0.024c0,1.643,1.163,2.975,2.771,2.975
		c1.031,0,1.691-0.408,2.41-1.08l0.948,0.959c-0.876,0.912-1.835,1.487-3.406,1.487C145.944,91.325,144.122,89.418,144.122,87.007z"
		/>
	<path class="st6" d="M153.481,87.007v-0.024c0-2.363,1.822-4.341,4.401-4.341c2.578,0,4.377,1.955,4.377,4.317v0.024
		c0,2.363-1.822,4.342-4.401,4.342C155.28,91.325,153.481,89.37,153.481,87.007z M160.712,87.007v-0.024
		c0-1.631-1.188-2.986-2.854-2.986s-2.83,1.332-2.83,2.962v0.024c0,1.631,1.188,2.975,2.854,2.975S160.712,88.639,160.712,87.007z"
		/>
	<path class="st6" d="M164.796,82.786h3.131c2.639,0,4.461,1.811,4.461,4.174v0.024c0,2.363-1.822,4.198-4.461,4.198h-3.131V82.786z
		 M166.272,84.129v5.709h1.655c1.763,0,2.914-1.188,2.914-2.831v-0.024c0-1.643-1.151-2.854-2.914-2.854H166.272z"/>
	<path class="st6" d="M174.924,82.786h6.225v1.319H176.4v2.183h4.21v1.319h-4.21v2.255h4.81v1.319h-6.285V82.786z"/>
</g>
<g>
	<path class="st6" d="M31.319,82.786h3.311c1.967,0,3.19,1.116,3.19,2.807v0.024c0,1.883-1.512,2.866-3.358,2.866h-1.667v2.699
		h-1.476V82.786z M34.51,87.151c1.115,0,1.812-0.624,1.812-1.499v-0.024c0-0.984-0.708-1.5-1.812-1.5h-1.715v3.022H34.51z"/>
	<path class="st6" d="M40.079,82.786h1.476v7.052h4.413v1.343h-5.889V82.786z"/>
	<path class="st6" d="M51.226,82.726h1.367l3.694,8.456h-1.56l-0.852-2.027h-3.97l-0.863,2.027h-1.512L51.226,82.726z
		 M53.337,87.847l-1.451-3.358l-1.439,3.358H53.337z"/>
	<path class="st6" d="M58.475,82.786h1.367l4.498,5.805v-5.805h1.451v8.396h-1.235l-4.63-5.973v5.973h-1.451V82.786z"/>
</g>
<rect x="150.56" y="168.131" class="st6" width="212.99" height="25.407"/>
<rect x="420.904" y="168.131" class="st6" width="212.99" height="25.407"/>
<g>
	<path class="st5" d="M161.656,181.485v-0.024c0-2.387,1.786-4.342,4.329-4.342c1.547,0,2.482,0.54,3.286,1.308l-0.947,1.091
		c-0.672-0.624-1.392-1.043-2.351-1.043c-1.596,0-2.771,1.319-2.771,2.962v0.024c0,1.643,1.163,2.975,2.771,2.975
		c1.031,0,1.691-0.408,2.41-1.08l0.948,0.959c-0.876,0.912-1.835,1.487-3.406,1.487
		C163.478,185.803,161.656,183.896,161.656,181.485z"/>
	<path class="st5" d="M171.015,181.485v-0.024c0-2.363,1.822-4.342,4.401-4.342c2.578,0,4.377,1.955,4.377,4.318v0.024
		c0,2.363-1.822,4.342-4.401,4.342C172.814,185.803,171.015,183.848,171.015,181.485z M178.247,181.485v-0.024
		c0-1.631-1.188-2.986-2.854-2.986s-2.83,1.331-2.83,2.962v0.024c0,1.631,1.188,2.975,2.854,2.975S178.247,183.116,178.247,181.485z
		"/>
	<path class="st5" d="M182.331,177.263h1.367l4.498,5.805v-5.805h1.451v8.396h-1.235l-4.63-5.973v5.973h-1.451V177.263z"/>
	<path class="st5" d="M194.618,178.63h-2.663v-1.367h6.812v1.367h-2.662v7.028h-1.487V178.63z"/>
	<path class="st5" d="M201.158,177.263h1.476v8.396h-1.476V177.263z"/>
	<path class="st5" d="M205.622,177.263h1.367l4.498,5.805v-5.805h1.451v8.396h-1.235l-4.63-5.973v5.973h-1.451V177.263z"/>
	<path class="st5" d="M215.713,182.097v-4.833h1.476v4.773c0,1.559,0.804,2.387,2.123,2.387c1.307,0,2.11-0.78,2.11-2.327v-4.833
		h1.476v4.762c0,2.506-1.415,3.766-3.61,3.766C217.105,185.791,215.713,184.531,215.713,182.097z"/>
	<path class="st5" d="M225.302,181.485v-0.024c0-2.363,1.822-4.342,4.401-4.342c2.578,0,4.377,1.955,4.377,4.318v0.024
		c0,2.363-1.822,4.342-4.401,4.342C227.101,185.803,225.302,183.848,225.302,181.485z M232.534,181.485v-0.024
		c0-1.631-1.188-2.986-2.854-2.986s-2.83,1.331-2.83,2.962v0.024c0,1.631,1.188,2.975,2.854,2.975S232.534,183.116,232.534,181.485z
		"/>
	<path class="st5" d="M236.486,182.097v-4.833h1.476v4.773c0,1.559,0.804,2.387,2.123,2.387c1.307,0,2.11-0.78,2.11-2.327v-4.833
		h1.476v4.762c0,2.506-1.416,3.766-3.61,3.766C237.877,185.791,236.486,184.531,236.486,182.097z"/>
	<path class="st5" d="M245.882,184.436l0.888-1.056c0.804,0.696,1.619,1.091,2.65,1.091c0.911,0,1.487-0.432,1.487-1.055v-0.024
		c0-0.6-0.336-0.924-1.896-1.284c-1.786-0.432-2.794-0.959-2.794-2.506v-0.024c0-1.439,1.199-2.435,2.866-2.435
		c1.224,0,2.195,0.372,3.047,1.055l-0.792,1.115c-0.756-0.563-1.511-0.863-2.278-0.863c-0.864,0-1.367,0.444-1.367,0.996v0.024
		c0,0.647,0.384,0.936,2.003,1.319c1.774,0.432,2.687,1.067,2.687,2.458v0.024c0,1.571-1.235,2.507-2.999,2.507
		C248.101,185.779,246.89,185.335,245.882,184.436z"/>
	<path class="st5" d="M259.296,177.263h1.476v8.396h-1.476V177.263z"/>
	<path class="st5" d="M263.76,177.263h1.367l4.498,5.805v-5.805h1.451v8.396h-1.235l-4.63-5.973v5.973h-1.451V177.263z"/>
	<path class="st5" d="M276.047,178.63h-2.663v-1.367h6.812v1.367h-2.662v7.028h-1.487V178.63z"/>
	<path class="st5" d="M282.504,177.263h6.225v1.319h-4.749v2.183h4.21v1.319h-4.21v2.255h4.81v1.319h-6.285V177.263z"/>
	<path class="st5" d="M290.917,181.485v-0.024c0-2.351,1.799-4.342,4.329-4.342c1.463,0,2.363,0.408,3.227,1.14l-0.936,1.115
		c-0.647-0.552-1.283-0.899-2.351-0.899c-1.548,0-2.723,1.355-2.723,2.962v0.024c0,1.727,1.14,2.999,2.854,2.999
		c0.791,0,1.511-0.252,2.026-0.636v-1.571h-2.146v-1.283h3.574v3.526c-0.828,0.708-2.015,1.308-3.502,1.308
		C292.644,185.803,290.917,183.932,290.917,181.485z"/>
	<path class="st5" d="M301.441,177.263h3.742c1.056,0,1.883,0.312,2.423,0.84c0.443,0.456,0.695,1.079,0.695,1.811v0.024
		c0,1.379-0.827,2.207-1.99,2.542l2.267,3.178h-1.751l-2.063-2.926h-1.847v2.926h-1.476V177.263z M305.076,181.425
		c1.055,0,1.727-0.551,1.727-1.403v-0.024c0-0.9-0.647-1.392-1.739-1.392h-2.146v2.818H305.076z"/>
	<path class="st5" d="M313.835,177.203h1.367l3.694,8.456h-1.56l-0.852-2.027h-3.97l-0.863,2.027h-1.512L313.835,177.203z
		 M315.947,182.325l-1.451-3.358l-1.439,3.358H315.947z"/>
	<path class="st5" d="M322.068,178.63h-2.663v-1.367h6.812v1.367h-2.662v7.028h-1.487V178.63z"/>
	<path class="st5" d="M328.608,177.263h1.476v8.396h-1.476V177.263z"/>
	<path class="st5" d="M332.702,181.485v-0.024c0-2.363,1.822-4.342,4.401-4.342c2.578,0,4.377,1.955,4.377,4.318v0.024
		c0,2.363-1.822,4.342-4.401,4.342C334.5,185.803,332.702,183.848,332.702,181.485z M339.933,181.485v-0.024
		c0-1.631-1.188-2.986-2.854-2.986s-2.83,1.331-2.83,2.962v0.024c0,1.631,1.188,2.975,2.854,2.975S339.933,183.116,339.933,181.485z
		"/>
	<path class="st5" d="M344.016,177.263h1.367l4.498,5.805v-5.805h1.451v8.396h-1.235l-4.63-5.973v5.973h-1.451V177.263z"/>
</g>
<g>
	<path class="st5" d="M448.201,181.485v-0.024c0-2.387,1.787-4.342,4.329-4.342c1.547,0,2.482,0.54,3.286,1.308l-0.947,1.091
		c-0.672-0.624-1.392-1.043-2.351-1.043c-1.596,0-2.771,1.319-2.771,2.962v0.024c0,1.643,1.163,2.975,2.771,2.975
		c1.031,0,1.69-0.408,2.41-1.08l0.948,0.959c-0.876,0.912-1.835,1.487-3.406,1.487C450.023,185.803,448.201,183.896,448.201,181.485
		z"/>
	<path class="st5" d="M457.561,181.485v-0.024c0-2.363,1.822-4.342,4.401-4.342c2.578,0,4.377,1.955,4.377,4.318v0.024
		c0,2.363-1.822,4.342-4.401,4.342C459.359,185.803,457.561,183.848,457.561,181.485z M464.792,181.485v-0.024
		c0-1.631-1.188-2.986-2.854-2.986s-2.83,1.331-2.83,2.962v0.024c0,1.631,1.188,2.975,2.854,2.975S464.792,183.116,464.792,181.485z
		"/>
	<path class="st5" d="M468.876,177.263h1.367l4.498,5.805v-5.805h1.451v8.396h-1.235l-4.63-5.973v5.973h-1.451V177.263z"/>
	<path class="st5" d="M481.163,178.63H478.5v-1.367h6.812v1.367h-2.662v7.028h-1.487V178.63z"/>
	<path class="st5" d="M487.703,177.263h1.476v8.396h-1.476V177.263z"/>
	<path class="st5" d="M492.167,177.263h1.367l4.498,5.805v-5.805h1.451v8.396h-1.235l-4.63-5.973v5.973h-1.451V177.263z"/>
	<path class="st5" d="M502.259,182.097v-4.833h1.476v4.773c0,1.559,0.804,2.387,2.123,2.387c1.307,0,2.11-0.78,2.11-2.327v-4.833
		h1.476v4.762c0,2.506-1.416,3.766-3.61,3.766C503.65,185.791,502.259,184.531,502.259,182.097z"/>
	<path class="st5" d="M511.848,181.485v-0.024c0-2.363,1.822-4.342,4.401-4.342c2.578,0,4.377,1.955,4.377,4.318v0.024
		c0,2.363-1.822,4.342-4.401,4.342C513.646,185.803,511.848,183.848,511.848,181.485z M519.079,181.485v-0.024
		c0-1.631-1.188-2.986-2.854-2.986s-2.83,1.331-2.83,2.962v0.024c0,1.631,1.188,2.975,2.854,2.975S519.079,183.116,519.079,181.485z
		"/>
	<path class="st5" d="M523.031,182.097v-4.833h1.476v4.773c0,1.559,0.804,2.387,2.123,2.387c1.307,0,2.11-0.78,2.11-2.327v-4.833
		h1.476v4.762c0,2.506-1.415,3.766-3.61,3.766C524.423,185.791,523.031,184.531,523.031,182.097z"/>
	<path class="st5" d="M532.428,184.436l0.888-1.056c0.804,0.696,1.619,1.091,2.65,1.091c0.911,0,1.487-0.432,1.487-1.055v-0.024
		c0-0.6-0.336-0.924-1.895-1.284c-1.787-0.432-2.795-0.959-2.795-2.506v-0.024c0-1.439,1.199-2.435,2.866-2.435
		c1.224,0,2.195,0.372,3.047,1.055l-0.792,1.115c-0.756-0.563-1.511-0.863-2.278-0.863c-0.864,0-1.367,0.444-1.367,0.996v0.024
		c0,0.647,0.384,0.936,2.003,1.319c1.774,0.432,2.687,1.067,2.687,2.458v0.024c0,1.571-1.235,2.507-2.999,2.507
		C534.646,185.779,533.436,185.335,532.428,184.436z"/>
	<path class="st5" d="M545.758,177.263h3.131c2.639,0,4.461,1.811,4.461,4.174v0.024c0,2.363-1.822,4.198-4.461,4.198h-3.131
		V177.263z M547.233,178.606v5.709h1.655c1.763,0,2.914-1.188,2.914-2.831v-0.024c0-1.643-1.151-2.854-2.914-2.854H547.233z"/>
	<path class="st5" d="M555.886,177.263h6.225v1.319h-4.749v2.183h4.21v1.319h-4.21v2.255h4.81v1.319h-6.285V177.263z"/>
	<path class="st5" d="M564.67,177.263h1.476v7.052h4.413v1.343h-5.889V177.263z"/>
	<path class="st5" d="M572.926,177.263h1.476v8.396h-1.476V177.263z"/>
	<path class="st5" d="M576.67,177.263h1.632l2.53,6.453l2.519-6.453h1.595l-3.478,8.456h-1.308L576.67,177.263z"/>
	<path class="st5" d="M587.134,177.263h6.225v1.319h-4.749v2.183h4.21v1.319h-4.21v2.255h4.81v1.319h-6.285V177.263z"/>
	<path class="st5" d="M595.918,177.263h3.742c1.056,0,1.883,0.312,2.423,0.84c0.443,0.456,0.695,1.079,0.695,1.811v0.024
		c0,1.379-0.827,2.207-1.991,2.542l2.268,3.178h-1.751l-2.063-2.926h-1.847v2.926h-1.476V177.263z M599.553,181.425
		c1.055,0,1.727-0.551,1.727-1.403v-0.024c0-0.9-0.647-1.392-1.739-1.392h-2.146v2.818H599.553z"/>
	<path class="st5" d="M607.508,182.349l-3.334-5.085h1.751l2.339,3.706l2.375-3.706h1.69l-3.334,5.049v3.346h-1.487V182.349z"/>
</g>
<polygon class="st6" points="69.88,126.491 68.466,125.077 107.007,86.536 69.124,47.67 70.557,46.273 109.818,86.553 "/>
<polygon class="st6" points="188.637,126.491 187.223,125.077 225.765,86.536 187.881,47.67 189.314,46.273 228.575,86.553 "/>
<polygon class="st6" points="304.395,126.491 302.981,125.077 341.522,86.536 303.639,47.67 305.071,46.273 344.333,86.553 "/>
<polygon class="st6" points="423.152,126.491 421.738,125.077 460.28,86.536 422.396,47.67 423.828,46.273 463.091,86.553 "/>
<polygon class="st6" points="541.91,126.491 540.496,125.077 579.037,86.536 541.154,47.67 542.586,46.273 581.848,86.553 "/>
<polygon class="st6" points="660.667,126.491 659.253,125.077 697.795,86.536 659.912,47.67 661.344,46.273 700.605,86.553 "/>
<polygon class="st6" points="779.425,126.491 778.011,125.077 816.553,86.536 778.67,47.67 780.102,46.273 819.363,86.553 "/>
<g>
	<rect x="116.213" y="117.136" class="st6" width="79.81" height="2"/>
	<rect x="116.213" y="54.285" class="st6" width="79.81" height="2"/>
</g>
<g>
	<rect x="231.938" y="117.136" class="st6" width="79.81" height="2"/>
	<rect x="231.938" y="54.285" class="st6" width="79.81" height="2"/>
</g>
<g>
	<rect x="350.654" y="117.136" class="st6" width="79.81" height="2"/>
	<rect x="350.654" y="54.285" class="st6" width="79.81" height="2"/>
</g>
<g>
	<rect x="469.372" y="117.136" class="st6" width="79.81" height="2"/>
	<rect x="469.372" y="54.285" class="st6" width="79.81" height="2"/>
</g>
<g>
	<rect x="588.089" y="117.136" class="st6" width="79.81" height="2"/>
	<rect x="588.089" y="54.285" class="st6" width="79.81" height="2"/>
</g>
<g>
	<rect x="706.806" y="117.136" class="st6" width="79.811" height="2"/>
	<rect x="706.806" y="54.285" class="st6" width="79.811" height="2"/>
</g>
<g>
	<rect x="-2.502" y="117.136" class="st6" width="79.81" height="2"/>
	<rect x="-2.502" y="54.285" class="st6" width="79.81" height="2"/>
</g>
<linearGradient id="SVGID_5_" gradientUnits="userSpaceOnUse" x1="230.8478" y1="626.2202" x2="190.2789" y2="626.2202" gradientTransform="matrix(-1 0 0 -1 460.9356 643.1205)">
	<stop  offset="0.2777" style="stop-color:#FFFFFF"/>
	<stop  offset="0.3466" style="stop-color:#FAFEFE;stop-opacity:0.886"/>
	<stop  offset="0.4263" style="stop-color:#ECFBF9;stop-opacity:0.7539"/>
	<stop  offset="0.5116" style="stop-color:#D5F6F2;stop-opacity:0.6128"/>
	<stop  offset="0.6007" style="stop-color:#B4F0E9;stop-opacity:0.4654"/>
	<stop  offset="0.6927" style="stop-color:#8AE7DC;stop-opacity:0.3131"/>
	<stop  offset="0.7872" style="stop-color:#57DCCD;stop-opacity:0.1566"/>
	<stop  offset="0.8819" style="stop-color:#1CD0BB;stop-opacity:0"/>
</linearGradient>
<polygon class="st7" points="230.088,15.395 270.657,15.395 270.657,18.405 230.088,18.405 "/>
<linearGradient id="SVGID_6_" gradientUnits="userSpaceOnUse" x1="246.2836" y1="-80.2349" x2="201.5791" y2="-80.2349" gradientTransform="matrix(1 0 0 1 23.9444 234.4884)">
	<stop  offset="0.2777" style="stop-color:#FFFFFF"/>
	<stop  offset="0.3415" style="stop-color:#FAFDFE;stop-opacity:0.8933"/>
	<stop  offset="0.4156" style="stop-color:#ECF9FC;stop-opacity:0.7696"/>
	<stop  offset="0.4947" style="stop-color:#D5F1F8;stop-opacity:0.6374"/>
	<stop  offset="0.5773" style="stop-color:#B4E6F3;stop-opacity:0.4993"/>
	<stop  offset="0.6628" style="stop-color:#8AD8ED;stop-opacity:0.3565"/>
	<stop  offset="0.7505" style="stop-color:#57C6E5;stop-opacity:0.2098"/>
	<stop  offset="0.8386" style="stop-color:#1CB2DB;stop-opacity:0.0627"/>
	<stop  offset="0.8761" style="stop-color:#00A9D7;stop-opacity:0"/>
</linearGradient>
<rect x="225.523" y="152.73" class="st8" width="44.704" height="3.048"/>
<polygon class="st3" points="241.601,16.851 228.306,9.175 228.306,24.528 "/>
<polygon class="st3" points="256.796,153.856 270.091,161.532 270.091,146.18 "/>
</svg>
